<svg xmlns="http://www.w3.org/2000/svg" xmlns:xlink="http://www.w3.org/1999/xlink" width="500" zoomAndPan="magnify" viewBox="0 0 375 374.999991" height="500" preserveAspectRatio="xMidYMid meet" version="1.0"><defs><filter x="0%" y="0%" width="100%" height="100%" id="39482beee0"><feColorMatrix values="0 0 0 0 1 0 0 0 0 1 0 0 0 0 1 0 0 0 1 0" color-interpolation-filters="sRGB"/></filter><g/><clipPath id="c7ef2220b6"><path d="M 111 80.070312 L 265 80.070312 L 265 231 L 111 231 Z M 111 80.070312 " clip-rule="nonzero"/></clipPath><clipPath id="884953ffcb"><path d="M 154.390625 129.761719 L 220.609375 129.761719 L 220.609375 187.84375 L 154.390625 187.84375 Z M 154.390625 129.761719 " clip-rule="nonzero"/></clipPath><clipPath id="04aade9a4d"><path d="M 154.390625 146.894531 C 154.390625 165.34375 187.5 187.84375 187.5 187.84375 C 187.5 187.84375 220.460938 165.183594 220.609375 146.894531 C 220.609375 137.453125 212.914062 129.761719 203.472656 129.761719 C 196.214844 129.761719 189.964844 134.40625 187.5 140.792969 C 185.035156 134.40625 178.785156 129.761719 171.527344 129.761719 C 162.085938 129.761719 154.390625 137.453125 154.390625 146.894531 " clip-rule="nonzero"/></clipPath><mask id="b855071f06"><g filter="url(#39482beee0)"><rect x="-37.5" width="450" fill="#000000" y="-37.499999" height="449.999989" fill-opacity="0.82"/></g></mask><clipPath id="bf36f7840f"><path d="M 0.152344 0.617188 L 52.847656 0.617188 L 52.847656 46.84375 L 0.152344 46.84375 Z M 0.152344 0.617188 " clip-rule="nonzero"/></clipPath><clipPath id="5cf725f199"><path d="M 0.152344 14.257812 C 0.152344 28.9375 26.5 46.84375 26.5 46.84375 C 26.5 46.84375 52.734375 28.8125 52.847656 14.257812 C 52.847656 6.742188 46.726562 0.617188 39.210938 0.617188 C 33.433594 0.617188 28.460938 4.316406 26.5 9.398438 C 24.539062 4.316406 19.566406 0.617188 13.789062 0.617188 C 6.273438 0.617188 0.152344 6.742188 0.152344 14.257812 " clip-rule="nonzero"/></clipPath><clipPath id="b119b1fe1c"><rect x="0" width="54" y="0" height="47"/></clipPath></defs><rect x="-37.5" width="450" fill="#ffffff" y="-37.499999" height="449.999989" fill-opacity="1"/><rect x="-37.5" width="450" fill="#ffffff" y="-37.499999" height="449.999989" fill-opacity="1"/><path fill="#1b9ce4" d="M 138.472656 151.214844 C 138.472656 125.265625 159.507812 104.230469 185.457031 104.230469 C 197.320312 104.230469 208.152344 108.628906 216.421875 115.882812 C 207.425781 101.9375 191.757812 92.707031 173.929688 92.707031 C 146.027344 92.707031 123.402344 115.328125 123.402344 143.234375 C 123.402344 167.480469 140.480469 187.730469 163.261719 192.628906 C 148.503906 184.707031 138.472656 169.132812 138.472656 151.214844 " fill-opacity="1" fill-rule="nonzero"/><g clip-path="url(#c7ef2220b6)"><path fill="#183e9f" d="M 233.980469 80.417969 C 233.054688 80.070312 232.644531 81.039062 232.484375 82.339844 C 232.171875 84.882812 233.191406 87.398438 235.117188 89.085938 C 255.261719 106.738281 251.351562 149.988281 238.1875 147.410156 C 229.542969 145.71875 238.75 120.023438 231.542969 119.148438 C 226.757812 118.566406 222.503906 130.476562 222.808594 146.179688 C 222.980469 155.164062 225.867188 162.582031 228.402344 169.015625 C 232.074219 178.339844 228.699219 189.011719 220.253906 194.402344 C 193.378906 211.554688 157.285156 208.390625 133.808594 184.914062 C 121.40625 172.511719 114.679688 156.585938 113.617188 140.359375 C 108.429688 164.390625 115.199219 190.480469 133.921875 209.125 C 157.519531 232.628906 195.203125 237.519531 224.046875 220.863281 C 251.425781 205.050781 262.875 172.515625 264.503906 142.269531 C 266.578125 103.792969 244.496094 84.378906 233.980469 80.417969 Z M 230.207031 101.472656 C 240.671875 110.671875 244.628906 126.777344 244.164062 139.75 C 245.804688 135.730469 246.699219 129.835938 246.492188 123.53125 C 246.222656 115.097656 244.214844 107.203125 240.859375 100.800781 C 236.515625 96.625 232.238281 93.984375 229.039062 92.777344 C 228.089844 92.421875 227.679688 93.441406 227.53125 94.789062 C 227.25 97.320312 228.296875 99.792969 230.207031 101.472656 " fill-opacity="1" fill-rule="nonzero"/></g><g clip-path="url(#884953ffcb)"><g clip-path="url(#04aade9a4d)"><path fill="#183e9f" d="M 154.390625 129.761719 L 220.609375 129.761719 L 220.609375 187.84375 L 154.390625 187.84375 Z M 154.390625 129.761719 " fill-opacity="1" fill-rule="nonzero"/></g></g><g mask="url(#b855071f06)"><g transform="matrix(1, 0, 0, 1, 161, 141)"><g clip-path="url(#b119b1fe1c)"><g clip-path="url(#bf36f7840f)"><g clip-path="url(#5cf725f199)"><path fill="#54afe6" d="M 0.152344 0.617188 L 52.847656 0.617188 L 52.847656 46.84375 L 0.152344 46.84375 Z M 0.152344 0.617188 " fill-opacity="1" fill-rule="nonzero"/></g></g></g></g></g><g fill="#183172" fill-opacity="1"><g transform="translate(104.81055, 290.602392)"><g><path d="M 23.796875 -12.78125 C 23.796875 -8.851562 22.59375 -5.703125 20.1875 -3.328125 C 17.976562 -1.109375 15.0625 0 11.4375 0 L 2.34375 0 L 2.34375 -23.484375 C 2.34375 -23.503906 2.253906 -23.847656 2.078125 -24.515625 C 1.898438 -25.179688 1.800781 -25.550781 1.78125 -25.625 L 11.484375 -25.625 C 15.328125 -25.625 18.335938 -24.445312 20.515625 -22.09375 C 22.703125 -19.75 23.796875 -16.644531 23.796875 -12.78125 Z M 18.625 -12.640625 C 18.625 -14.316406 18.390625 -15.84375 17.921875 -17.21875 C 17.453125 -18.59375 16.640625 -19.757812 15.484375 -20.71875 C 14.328125 -21.675781 12.890625 -22.15625 11.171875 -22.15625 L 7.171875 -22.15625 L 7.171875 -3.46875 L 11.234375 -3.46875 C 12.515625 -3.46875 13.644531 -3.71875 14.625 -4.21875 C 15.601562 -4.71875 16.375 -5.40625 16.9375 -6.28125 C 17.5 -7.15625 17.921875 -8.125 18.203125 -9.1875 C 18.484375 -10.25 18.625 -11.398438 18.625 -12.640625 Z M 18.625 -12.640625 "/></g></g></g><g fill="#183172" fill-opacity="1"><g transform="translate(129.270029, 290.602392)"><g><path d="M 16.3125 -10.296875 C 16.3125 -8.890625 15.71875 -8.1875 14.53125 -8.1875 L 5.359375 -8.1875 C 5.359375 -6.695312 5.753906 -5.363281 6.546875 -4.1875 C 7.335938 -3.007812 8.445312 -2.421875 9.875 -2.421875 C 10.59375 -2.421875 11.34375 -2.59375 12.125 -2.9375 C 12.90625 -3.289062 13.566406 -3.734375 14.109375 -4.265625 L 15.890625 -1.46875 C 15.171875 -0.863281 14.21875 -0.398438 13.03125 -0.078125 C 11.851562 0.234375 10.726562 0.390625 9.65625 0.390625 C 6.945312 0.390625 4.8125 -0.421875 3.25 -2.046875 C 1.6875 -3.671875 0.90625 -5.847656 0.90625 -8.578125 C 0.90625 -11.160156 1.632812 -13.359375 3.09375 -15.171875 C 4.550781 -16.984375 6.539062 -17.890625 9.0625 -17.890625 C 11.351562 -17.890625 13.132812 -17.195312 14.40625 -15.8125 C 15.675781 -14.4375 16.3125 -12.597656 16.3125 -10.296875 Z M 11.9375 -11.71875 C 11.9375 -12.675781 11.691406 -13.460938 11.203125 -14.078125 C 10.710938 -14.703125 10.007812 -15.015625 9.09375 -15.015625 C 8.164062 -15.015625 7.335938 -14.582031 6.609375 -13.71875 C 5.890625 -12.851562 5.503906 -11.929688 5.453125 -10.953125 L 11.34375 -10.953125 C 11.738281 -10.953125 11.9375 -11.207031 11.9375 -11.71875 Z M 11.9375 -11.71875 "/></g></g></g><g fill="#183172" fill-opacity="1"><g transform="translate(146.556122, 290.602392)"><g><path d="M 17.015625 0 L 12.78125 0 L 12.78125 -11.34375 C 12.78125 -11.988281 12.742188 -12.515625 12.671875 -12.921875 C 12.597656 -13.335938 12.382812 -13.710938 12.03125 -14.046875 C 11.6875 -14.390625 11.195312 -14.5625 10.5625 -14.5625 C 10.050781 -14.5625 9.394531 -14.34375 8.59375 -13.90625 C 7.789062 -13.476562 7.191406 -13.054688 6.796875 -12.640625 L 6.796875 0 L 2.59375 0 L 2.59375 -12.453125 C 2.59375 -14.785156 2.226562 -16.382812 1.5 -17.25 L 5.921875 -17.78125 C 6.191406 -17.175781 6.390625 -16.429688 6.515625 -15.546875 C 8.234375 -17.109375 10.003906 -17.890625 11.828125 -17.890625 C 13.722656 -17.890625 15.0625 -17.363281 15.84375 -16.3125 C 16.625 -15.257812 17.015625 -13.742188 17.015625 -11.765625 Z M 17.015625 0 "/></g></g></g><g fill="#183172" fill-opacity="1"><g transform="translate(165.6968, 290.602392)"><g><path d="M 11.4375 -0.390625 C 9.875 0.0976562 8.5 0.34375 7.3125 0.34375 C 5.800781 0.34375 4.691406 -0.00390625 3.984375 -0.703125 C 3.285156 -1.398438 2.9375 -2.519531 2.9375 -4.0625 L 2.9375 -14.625 L 0.0625 -14.625 L 0.0625 -16.9375 C 0.957031 -16.957031 1.753906 -17.269531 2.453125 -17.875 C 3.148438 -18.488281 3.671875 -19.179688 4.015625 -19.953125 C 4.367188 -20.722656 4.648438 -21.5625 4.859375 -22.46875 L 7.90625 -22.46875 C 7.4375 -20.488281 7.203125 -18.796875 7.203125 -17.390625 L 11.4375 -17.390625 L 10.609375 -14.625 L 7.203125 -14.625 L 7.203125 -5 C 7.203125 -3.4375 7.695312 -2.65625 8.6875 -2.65625 C 9.21875 -2.65625 9.972656 -2.773438 10.953125 -3.015625 Z M 11.4375 -0.390625 "/></g></g></g><g fill="#183172" fill-opacity="1"><g transform="translate(177.13922, 290.602392)"><g><path d="M 18.0625 -0.671875 C 17.851562 -0.617188 17.53125 -0.519531 17.09375 -0.375 C 16.664062 -0.238281 16.3125 -0.128906 16.03125 -0.046875 C 15.75 0.0234375 15.414062 0.0976562 15.03125 0.171875 C 14.644531 0.242188 14.300781 0.28125 14 0.28125 C 13.300781 0.28125 12.707031 0.0664062 12.21875 -0.359375 C 11.726562 -0.796875 11.398438 -1.363281 11.234375 -2.0625 C 10.066406 -0.425781 8.316406 0.390625 5.984375 0.390625 C 4.554688 0.390625 3.375 -0.00390625 2.4375 -0.796875 C 1.507812 -1.597656 1.046875 -2.695312 1.046875 -4.09375 C 1.046875 -5.3125 1.335938 -6.335938 1.921875 -7.171875 C 2.503906 -8.015625 3.296875 -8.640625 4.296875 -9.046875 C 5.304688 -9.453125 6.3125 -9.742188 7.3125 -9.921875 C 8.3125 -10.097656 9.382812 -10.1875 10.53125 -10.1875 L 10.53125 -12.453125 C 10.53125 -13.367188 10.332031 -14.003906 9.9375 -14.359375 C 9.539062 -14.722656 8.898438 -14.90625 8.015625 -14.90625 C 6.773438 -14.90625 5.28125 -14.226562 3.53125 -12.875 L 1.8125 -15.640625 C 3.9375 -17.085938 6.296875 -17.8125 8.890625 -17.8125 C 10.753906 -17.8125 12.191406 -17.332031 13.203125 -16.375 C 14.222656 -15.414062 14.734375 -14.003906 14.734375 -12.140625 L 14.734375 -4.546875 C 14.734375 -3.378906 15.015625 -2.796875 15.578125 -2.796875 C 15.765625 -2.796875 16.347656 -2.9375 17.328125 -3.21875 Z M 10.53125 -6.515625 L 10.53125 -7.3125 C 7.125 -7.3125 5.421875 -6.378906 5.421875 -4.515625 C 5.421875 -4.003906 5.625 -3.59375 6.03125 -3.28125 C 6.445312 -2.976562 6.921875 -2.828125 7.453125 -2.828125 C 8.359375 -2.828125 9.097656 -3.207031 9.671875 -3.96875 C 10.242188 -4.726562 10.53125 -5.578125 10.53125 -6.515625 Z M 10.53125 -6.515625 "/></g></g></g><g fill="#183172" fill-opacity="1"><g transform="translate(194.425313, 290.602392)"><g><path d="M 6.46875 0 L 2.203125 0 L 2.203125 -25.03125 C 2.203125 -25.050781 2.171875 -25.203125 2.109375 -25.484375 C 2.054688 -25.765625 1.992188 -26.066406 1.921875 -26.390625 C 1.847656 -26.710938 1.8125 -26.890625 1.8125 -26.921875 L 6.46875 -26.921875 Z M 6.46875 0 "/></g></g></g><g fill="#183172" fill-opacity="1"><g transform="translate(203.208333, 290.602392)"><g><path d="M 16.03125 -17.390625 L 9.828125 0.109375 C 8.054688 5.191406 5.523438 7.734375 2.234375 7.734375 L 0.9375 7.734375 L 0.9375 4.765625 C 1.21875 4.828125 1.523438 4.859375 1.859375 4.859375 C 2.484375 4.859375 3.046875 4.710938 3.546875 4.421875 C 4.054688 4.128906 4.476562 3.703125 4.8125 3.140625 C 5.144531 2.585938 5.410156 2.082031 5.609375 1.625 C 5.816406 1.164062 6.023438 0.613281 6.234375 -0.03125 L -0.0625 -17.390625 L 4.4375 -17.390625 C 4.601562 -16.898438 5.101562 -15.484375 5.9375 -13.140625 C 6.78125 -10.796875 7.414062 -8.992188 7.84375 -7.734375 C 7.9375 -7.429688 8.035156 -6.957031 8.140625 -6.3125 C 8.242188 -5.675781 8.304688 -5.273438 8.328125 -5.109375 C 8.585938 -6.597656 8.75 -7.472656 8.8125 -7.734375 L 12.1875 -17.390625 Z M 16.03125 -17.390625 "/></g></g></g><g fill="#183172" fill-opacity="1"><g transform="translate(219.164726, 290.602392)"><g><path d="M 11.4375 -0.390625 C 9.875 0.0976562 8.5 0.34375 7.3125 0.34375 C 5.800781 0.34375 4.691406 -0.00390625 3.984375 -0.703125 C 3.285156 -1.398438 2.9375 -2.519531 2.9375 -4.0625 L 2.9375 -14.625 L 0.0625 -14.625 L 0.0625 -16.9375 C 0.957031 -16.957031 1.753906 -17.269531 2.453125 -17.875 C 3.148438 -18.488281 3.671875 -19.179688 4.015625 -19.953125 C 4.367188 -20.722656 4.648438 -21.5625 4.859375 -22.46875 L 7.90625 -22.46875 C 7.4375 -20.488281 7.203125 -18.796875 7.203125 -17.390625 L 11.4375 -17.390625 L 10.609375 -14.625 L 7.203125 -14.625 L 7.203125 -5 C 7.203125 -3.4375 7.695312 -2.65625 8.6875 -2.65625 C 9.21875 -2.65625 9.972656 -2.773438 10.953125 -3.015625 Z M 11.4375 -0.390625 "/></g></g></g><g fill="#183172" fill-opacity="1"><g transform="translate(230.607146, 290.602392)"><g><path d="M 6.46875 0 L 2.28125 0 L 2.28125 -15.5 C 2.28125 -15.53125 2.25 -15.679688 2.1875 -15.953125 C 2.125 -16.234375 2.054688 -16.535156 1.984375 -16.859375 C 1.921875 -17.191406 1.890625 -17.367188 1.890625 -17.390625 L 6.46875 -17.390625 Z M 6.265625 -25.65625 C 6.796875 -25.113281 7.0625 -24.46875 7.0625 -23.71875 C 7.0625 -22.976562 6.800781 -22.34375 6.28125 -21.8125 C 5.757812 -21.289062 5.125 -21.03125 4.375 -21.03125 C 3.625 -21.03125 2.988281 -21.289062 2.46875 -21.8125 C 1.945312 -22.34375 1.6875 -22.976562 1.6875 -23.71875 C 1.6875 -24.46875 1.945312 -25.109375 2.46875 -25.640625 C 2.988281 -26.179688 3.625 -26.453125 4.375 -26.453125 C 5.125 -26.453125 5.753906 -26.1875 6.265625 -25.65625 Z M 6.265625 -25.65625 "/></g></g></g><g fill="#183172" fill-opacity="1"><g transform="translate(239.390165, 290.602392)"><g><path d="M 15.46875 -1.21875 C 14.300781 -0.632812 13.285156 -0.21875 12.421875 0.03125 C 11.554688 0.289062 10.554688 0.421875 9.421875 0.421875 C 6.710938 0.421875 4.613281 -0.410156 3.125 -2.078125 C 1.644531 -3.742188 0.90625 -5.957031 0.90625 -8.71875 C 0.90625 -11.445312 1.726562 -13.648438 3.375 -15.328125 C 5.019531 -17.003906 7.195312 -17.84375 9.90625 -17.84375 C 10.769531 -17.84375 11.691406 -17.691406 12.671875 -17.390625 C 13.648438 -17.085938 14.488281 -16.679688 15.1875 -16.171875 L 13.09375 -13.515625 C 11.875 -14.421875 10.679688 -14.875 9.515625 -14.875 C 8.160156 -14.875 7.15625 -14.234375 6.5 -12.953125 C 5.851562 -11.671875 5.53125 -10.28125 5.53125 -8.78125 C 5.53125 -7.726562 5.660156 -6.753906 5.921875 -5.859375 C 6.191406 -4.960938 6.675781 -4.179688 7.375 -3.515625 C 8.082031 -2.847656 8.972656 -2.515625 10.046875 -2.515625 C 11.117188 -2.515625 12.332031 -3.085938 13.6875 -4.234375 Z M 15.46875 -1.21875 "/></g></g></g><g fill="#183172" fill-opacity="1"><g transform="translate(255.136606, 290.602392)"><g><path d="M 13.75 -5.421875 C 13.75 -3.628906 13.070312 -2.195312 11.71875 -1.125 C 10.363281 -0.0507812 8.769531 0.484375 6.9375 0.484375 C 4.875 0.484375 2.9375 -0.015625 1.125 -1.015625 L 2.625 -3.890625 C 4.207031 -2.953125 5.523438 -2.484375 6.578125 -2.484375 C 7.328125 -2.484375 7.953125 -2.675781 8.453125 -3.0625 C 8.953125 -3.445312 9.203125 -4 9.203125 -4.71875 C 9.203125 -5.351562 8.9375 -5.878906 8.40625 -6.296875 C 7.882812 -6.722656 7.25 -7.0625 6.5 -7.3125 C 5.757812 -7.570312 5.007812 -7.867188 4.25 -8.203125 C 3.488281 -8.546875 2.847656 -9.066406 2.328125 -9.765625 C 1.804688 -10.460938 1.546875 -11.335938 1.546875 -12.390625 C 1.546875 -14.140625 2.210938 -15.484375 3.546875 -16.421875 C 4.890625 -17.367188 6.460938 -17.84375 8.265625 -17.84375 C 10.242188 -17.84375 11.957031 -17.484375 13.40625 -16.765625 L 11.9375 -13.828125 C 10.90625 -14.617188 9.75 -15.015625 8.46875 -15.015625 C 7.8125 -15.015625 7.25 -14.851562 6.78125 -14.53125 C 6.320312 -14.21875 6.09375 -13.757812 6.09375 -13.15625 C 6.09375 -12.570312 6.351562 -12.09375 6.875 -11.71875 C 7.40625 -11.351562 8.046875 -11.035156 8.796875 -10.765625 C 9.554688 -10.492188 10.3125 -10.179688 11.0625 -9.828125 C 11.8125 -9.484375 12.445312 -8.941406 12.96875 -8.203125 C 13.488281 -7.472656 13.75 -6.546875 13.75 -5.421875 Z M 13.75 -5.421875 "/></g></g></g></svg>